<svg xmlns="http://www.w3.org/2000/svg" width="67.333" height="80.707" viewBox="0 0 67.333 80.707">
  <g id="deactive_user" data-name="deactive user" transform="translate(0 0)">
    <path id="Path_2862" data-name="Path 2862" d="M106.471,38.877a18.808,18.808,0,0,0,13.745-5.695,18.808,18.808,0,0,0,5.694-13.744,18.811,18.811,0,0,0-5.695-13.744,19.434,19.434,0,0,0-27.488,0,18.809,18.809,0,0,0-5.695,13.743,18.808,18.808,0,0,0,5.7,13.745,18.813,18.813,0,0,0,13.743,5.694Zm0,0" transform="translate(-73.313)" fill="#c8c8c8"/>
    <path id="Path_2863" data-name="Path 2863" d="M67.17,270.391a48.014,48.014,0,0,0-.654-5.1,40.178,40.178,0,0,0-1.254-5.127,25.325,25.325,0,0,0-2.108-4.782,18.045,18.045,0,0,0-3.178-4.142,14.014,14.014,0,0,0-4.566-2.869,15.779,15.779,0,0,0-5.829-1.055c-.824,0-1.621.338-3.159,1.34-.947.618-2.055,1.332-3.291,2.122a18.859,18.859,0,0,1-4.258,1.876,16.536,16.536,0,0,1-10.417,0,18.816,18.816,0,0,1-4.255-1.876c-1.225-.783-2.333-1.5-3.294-2.123-1.537-1-2.334-1.34-3.158-1.34a15.759,15.759,0,0,0-5.828,1.056,14,14,0,0,0-4.566,2.869,18.047,18.047,0,0,0-3.177,4.141,25.375,25.375,0,0,0-2.108,4.782,40.273,40.273,0,0,0-1.254,5.127,47.843,47.843,0,0,0-.654,5.1C.054,271.937,0,273.54,0,275.159A13.4,13.4,0,0,0,3.98,285.3a14.328,14.328,0,0,0,10.256,3.741H53.1A14.325,14.325,0,0,0,63.353,285.3a13.4,13.4,0,0,0,3.981-10.139c0-1.626-.055-3.23-.163-4.767Zm0,0" transform="translate(0 -208.332)" fill="#c8c8c8"/>
  </g>
</svg>
